<svg xmlns="http://www.w3.org/2000/svg" width="66" height="63"><defs><style>.cls-1{fill:#9fadb9;fill-rule:evenodd}</style></defs><path id="Hasselby" class="cls-1" d="M592.75 2521.55a28.065 28.065 0 0 0-13.523-16.44l-1.109 3.81a.988.988 0 0 1-.737.69.809.809 0 0 1-.218.02 1.012 1.012 0 0 1-.745-.33c-6.835-7.68-6.835-7.68-6.738-8.16a.97.97 0 0 1 .643-.73s9.225-3.23 9.6-3.36a.965.965 0 0 1 .607-.03.984.984 0 0 1 .705 1.19 1.253 1.253 0 0 1-.04.14l-1.4 4.82a30.062 30.062 0 0 1 14.856 17.8 29.7 29.7 0 0 1-2.212 22.99.991.991 0 0 1-1.755-.92 27.76 27.76 0 0 0 2.066-21.49zm-16.956-20.97l-3.424 1.2c1.155 1.3 3.091 3.47 4.341 4.88l2.075-7.13zm-33.49 45.61a28.687 28.687 0 0 0 37.417 8.08c-1.479-1.52-2.768-2.85-2.955-3.04a.971.971 0 0 1-.232-.97 1.007 1.007 0 0 1 .752-.68l4.827-.96c5.444-1.08 5.441-1.08 5.819-.58a.971.971 0 0 1 .181.77s-1.79 9.52-1.861 9.91a1 1 0 0 1-.284.54 1.032 1.032 0 0 1-.7.28 1.006 1.006 0 0 1-.7-.29c-.028-.03-.053-.05-.076-.08-.394-.4-1.833-1.88-3.367-3.46a30.623 30.623 0 0 1-40.44-8.38.976.976 0 0 1 .232-1.37 1.006 1.006 0 0 1 1.383.23zm42.349 10.31c.138-.76.326-1.77.575-3.09l.664-3.53c-1.714.34-4.585.91-6.439 1.28 1.429 1.47 3.733 3.83 5.2 5.34zm-54.116-22.64a.752.752 0 0 1 .365-.11l4.289-1.06c-.053-.54-.112-1.07-.135-1.62a30.334 30.334 0 0 1 29.195-31.39.981.981 0 1 1 .083 1.96 28.364 28.364 0 0 0-27.294 29.35c.018.41.066.82.1 1.22l4.5-1.1a.982.982 0 0 1 .969.29.97.97 0 0 1 .21.98l-1.569 4.62c-1.8 5.28-1.8 5.28-2.514 5.28a1.007 1.007 0 0 1-.646-.23s-7.422-6.29-7.737-6.55a.992.992 0 0 1-.3-.42.979.979 0 0 1 .484-1.22zm4.967 3.41l2.76 2.34c.56-1.64 1.5-4.39 2.1-6.16l-7.276 1.78c.606.51 1.391 1.17 2.412 2.04z" transform="translate(-530 -2497)"/></svg>