<svg xmlns="http://www.w3.org/2000/svg" width="63" height="63"><defs><style>.cls-1{fill:#9fadb9;fill-rule:evenodd}</style></defs><path id="Intensivpaket_1" class="cls-1" d="M523 1872h-9v-13a1.081 1.081 0 1 0-2 0v15h11a1 1 0 0 0 0-2zm-9.5-30.01a31.505 31.505 0 1 0 31.5 31.51 31.544 31.544 0 0 0-31.5-31.51zM543 1875c-.876 14.78-12.22 27.12-27 28h-2v-5a1 1 0 0 0-2 0v5c-14.781-.88-27.125-12.22-28-27v-2h6a1 1 0 0 0 0-2h-6c.875-14.78 12.219-27.13 27-28h1v6a1 1 0 0 0 2 0v-6h1a30.263 30.263 0 0 1 28 28h-6a1 1 0 0 0 0 2h6v1z" transform="translate(-482 -1842)"/></svg>