<svg xmlns="http://www.w3.org/2000/svg" width="48.031" height="33"><defs><style>.cls-1{fill:#fff;fill-rule:evenodd}</style></defs><path id="Korkortstillstand" class="cls-1" d="M951 3681h14a1 1 0 0 1 0 2h-14a1 1 0 0 1 0-2zm-8-2a3 3 0 1 1-3 3 3 3 0 0 1 3-3zm0 10a3 3 0 1 1-3 3 3 3 0 0 1 3-3zm8 2h14a1 1 0 0 1 0 2h-14a1 1 0 0 1 0-2zm-10 10h11a1 1 0 0 1 0 2h-11a1 1 0 0 1 0-2zm23.9-.01l8.607 8.61a1 1 0 1 1-1.414 1.41l-8.607-8.61a1 1 0 1 1 1.414-1.41zm21.347-4.71l-13.937 13.94a1.039 1.039 0 0 0 1.468 1.47l13.937-13.94a1.039 1.039 0 0 0-1.465-1.47z" transform="translate(-940 -3679)"/></svg>