<svg id="Layer_1" data-name="Layer 1" xmlns="http://www.w3.org/2000/svg" viewBox="0 0 53.06 64.84"><defs><style>.cls-1{fill:#9fadb9}</style></defs><title>number_2</title><path class="cls-1" d="M50.06 16zm3 3a7.39 7.39 0 0 0-2.2-5.25c-3.49-3.43-7-7-10.46-10.38A9 9 0 0 0 34.06 1h-24a9.62 9.62 0 0 0-9.91 9.62 1.31 1.31 0 0 0 1.2 1.31c.7 0 .72-1.33.72-1.93a6.77 6.77 0 0 1 7-7h26a5.72 5.72 0 0 1 4 2c3.49 3.53 7.51 7.47 11 11 0 .05 0 0 0 0h-10a2.83 2.83 0 0 1-3-3v-3c0-.71 0-1.19-.74-1.19A1.33 1.33 0 0 0 35 10.12v2.52c0 3.22 1.85 5.36 5 5.36h11v37a8.28 8.28 0 0 1-8 8H9a6.83 6.83 0 0 1-5-2c-1.3-1.31-2-4-2-6V24c0-.71-.22-1.18-.91-1.18A1.08 1.08 0 0 0 .05 24v31a10 10 0 0 0 2.79 7.05 9.73 9.73 0 0 0 7 2.82h33.45a9.47 9.47 0 0 0 9.76-9.88V37.4c-.05-8.57.01-9.83.01-18.4zM1.35 20.8c.72 0 .72-1.08.72-1.8s0-.82-.72-.82a1.31 1.31 0 0 0 0 2.62zM25.13 37l-6.69 5.91a1.27 1.27 0 0 0-.53 1A1 1 0 0 0 19 45h11.82a1 1 0 1 0 0-2h-9.5l5.24-4.65c3.44-3 5-4.76 5-7.62v-.06c0-3.19-2.55-5.54-6.08-5.54-3.22 0-5 1.34-6.64 3.61a1 1 0 0 0-.22.62 1 1 0 0 0 1.78.64c1.4-1.85 2.8-2.86 4.87-2.86a3.75 3.75 0 0 1 3.95 3.75c0 1.93-1.06 3.44-4.09 6.11z"/></svg>