<svg id="Layer_1" data-name="Layer 1" xmlns="http://www.w3.org/2000/svg" viewBox="0 0 53.04 64.84"><defs><style>.cls-1{fill:#9fadb9}</style></defs><title>number_1</title><path class="cls-1" d="M50 16zm3 3a7.39 7.39 0 0 0-2.2-5.25c-3.49-3.43-7-7-10.46-10.38A9 9 0 0 0 34 1H10a9.62 9.62 0 0 0-9.87 9.62 1.31 1.31 0 0 0 1.2 1.31C2 11.93 2 10.6 2 10a6.77 6.77 0 0 1 7-7h26a5.72 5.72 0 0 1 4 2c3.48 3.52 7.5 7.46 11 11 0 .05 0 0 0 0H40a2.83 2.83 0 0 1-3-3v-3c0-.71 0-1.19-.74-1.19A1.33 1.33 0 0 0 35 10.12v2.52c0 3.22 1.85 5.36 5 5.36h11v37a8.28 8.28 0 0 1-8 8H9a6.83 6.83 0 0 1-5-2c-1.3-1.31-2-4-2-6V24c0-.71-.22-1.18-.91-1.18A1.08 1.08 0 0 0 0 24v31a10 10 0 0 0 2.79 7.05 9.73 9.73 0 0 0 7 2.82h33.48A9.47 9.47 0 0 0 53 55.06V37.4c-.06-8.57 0-9.83 0-18.4zM1.33 20.8C2 20.8 2 19.72 2 19s0-.82-.72-.82a1.31 1.31 0 0 0 0 2.62zm24.8 24.34c.62 0 .91-.52.91-1.14V26c0-.59-.26-.82-.91-.82h-.06a4.22 4.22 0 0 0-1.2.25l-3.22 1.12a1 1 0 0 0-.78 1 1 1 0 0 0 1 1 1.56 1.56 0 0 0 .48-.08l2.74-.9V44a1.12 1.12 0 0 0 1.04 1.14z"/></svg>