<svg id="Layer_1" data-name="Layer 1" xmlns="http://www.w3.org/2000/svg" viewBox="0 0 53.07 64.84"><defs><style>.cls-1{fill:#9fadb9}</style></defs><title>number_3</title><path class="cls-1" d="M50.06 15.45zm3 3a7.39 7.39 0 0 0-2.2-5.25c-3.49-3.43-7-7-10.46-10.38A9 9 0 0 0 34.07.46h-24a9.62 9.62 0 0 0-9.91 9.62 1.31 1.31 0 0 0 1.2 1.31c.7 0 .72-1.33.72-1.93a6.77 6.77 0 0 1 7-7h26a5.72 5.72 0 0 1 4 2c3.49 3.53 7.51 7.47 11 11 0 .05 0 0 0 0h-10a2.83 2.83 0 0 1-3-3v-3c0-.71 0-1.19-.74-1.19A1.33 1.33 0 0 0 35 9.57v2.52c0 3.22 1.85 5.36 5 5.36h11v37a8.28 8.28 0 0 1-8 8H9a6.83 6.83 0 0 1-5-2c-1.3-1.31-2-4-2-6v-31c0-.71-.22-1.18-.91-1.18a1.08 1.08 0 0 0-1.1 1.21v31a10 10 0 0 0 2.79 7.05 9.73 9.73 0 0 0 7 2.82H43.3a9.47 9.47 0 0 0 9.76-9.88V36.85c-.06-8.56.01-9.85.01-18.39zM1.35 20.26c.72 0 .72-1.08.72-1.8s0-.82-.72-.82a1.31 1.31 0 0 0 0 2.62zm23.87 22.52a6.72 6.72 0 0 1-5.32-2.49 1.15 1.15 0 0 0-.81-.34A1.11 1.11 0 0 0 18 41a1.22 1.22 0 0 0 .36.78 8.84 8.84 0 0 0 6.83 3c3.64 0 6.55-2.41 6.55-5.91v-.06c0-3.58-3.05-5.24-6.47-5.52L31 26.9a1.57 1.57 0 0 0 .53-1.09 1 1 0 0 0-1.06-1H19.82a1 1 0 0 0-1 1 1 1 0 0 0 1 1h8.68l-5.71 6.47a1.25 1.25 0 0 0-.45.87 1 1 0 0 0 1 1H24c3.22 0 5.49 1.34 5.49 3.78V39c.02 2.26-1.89 3.78-4.27 3.78z"/></svg>