<svg xmlns="http://www.w3.org/2000/svg" width="63" height="48"><defs><style>.cls-1{fill:#9fadb9;fill-rule:evenodd}</style></defs><path id="ovriga_tjanster_4" class="cls-1" d="M1433.94 1896h9.39a1.636 1.636 0 0 0 1.67-1.67v-22.62a5.272 5.272 0 0 0-1.84-4.02l-3.36-2.83v-.27l-5.88-12.69a6.741 6.741 0 0 0-6.12-3.9h-28.81a6.752 6.752 0 0 0-6.33 4.38l-4.6 12.42-3.88 2.83a5.2 5.2 0 0 0-2.18 4.3v22.4a1.636 1.636 0 0 0 1.67 1.67h9.39a2.178 2.178 0 0 0 1.94-2v-8h37v8a2.178 2.178 0 0 0 1.94 2zm9.1-1.89l-9.04-.11v-8h9zm-48.57-41.08a4.917 4.917 0 0 1 4.52-3.14h28.81a4.865 4.865 0 0 1 4.35 2.81l5.85 11.3h-48zM1393 1894h-9v-8h9v8zm-9-10l-.11-12.07a3.463 3.463 0 0 1 1.34-2.71l3.77-3.22h50l2.92 3.16a3.3 3.3 0 0 1 1.19 2.55L1443 1884h-59zm14-9h-8a1.093 1.093 0 0 0-.92 1.12.873.873 0 0 0 .92.88l8.19.06a.947.947 0 0 0 .95-.94 1.3 1.3 0 0 0-1.14-1.12zm31.53.17a.956.956 0 0 0-.95.95c0 .52.9.88 1.42.88h6c.52 0 1.92-.36 1.92-.88a.956.956 0 0 0-.95-.95h-7.44z" transform="translate(-1382 -1848)"/></svg>