<svg xmlns="http://www.w3.org/2000/svg" width="63" height="63"><defs><style>.cls-1{fill:#9fadb9;fill-rule:evenodd}</style></defs><path id="ovriga_tjanster_3" class="cls-1" d="M1113.5 1841c-16.83 0-31.5 14.67-31.5 31.5s14.67 31.5 31.5 31.5 31.5-14.68 31.5-31.5c-.02-16.81-14.7-31.48-31.5-31.5zm0 60.97c-15.71 0-29.47-13.76-29.47-29.47s13.76-29.47 29.47-29.47 29.47 13.76 29.47 29.47c-.02 15.69-13.78 29.45-29.47 29.47zM1125 1874h-12v-15a1 1 0 0 0-2 0v16c0 .57 1.43 1 2 1h12a1 1 0 0 0 0-2z" transform="translate(-1082 -1841)"/></svg>