<svg xmlns="http://www.w3.org/2000/svg" width="62.69" height="63"><defs><style>.cls-1{fill:#9fadb9;fill-rule:evenodd}</style></defs><path id="spanga" class="cls-1" d="M1373.9 2561h-22.57a4.274 4.274 0 0 1-4.26-4.28v-54.44a4.274 4.274 0 0 1 4.26-4.28h22.57a3.914 3.914 0 0 1 4.1 4v55a3.914 3.914 0 0 1-4.1 4zm-22.57-61c-1.25 0-2.33 1.74-2.33 3v53c0 1.26 1.08 3 2.33 3h22.57a1.912 1.912 0 0 0 2.1-2v-55a1.912 1.912 0 0 0-2.1-2h-22.57zm11.28 55.35a7.335 7.335 0 1 1 7.3-7.34 7.33 7.33 0 0 1-7.3 7.34zm0-12.67a5.335 5.335 0 1 0 5.31 5.33 5.324 5.324 0 0 0-5.31-5.33zm0-5.27a7.34 7.34 0 1 1 7.3-7.34 7.336 7.336 0 0 1-7.3 7.34zm0-12.68a5.34 5.34 0 1 0 5.31 5.34 5.333 5.333 0 0 0-5.31-5.34zM1380 2520v-16h11c.21 0-.21-.04 0 0a3.066 3.066 0 0 1 2.63 3.42c-1.14 5.47-5.78 10.03-12.09 11.92zm2-14v11c4.95-1.87 8.77-5.61 9.69-9.99a.765.765 0 0 0-.69-1.01c-.07-.01.07 0 0 0h-9zm-19.39 13.46a7.335 7.335 0 1 1 7.3-7.33 7.328 7.328 0 0 1-7.3 7.33zm0-12.67a5.335 5.335 0 1 0 5.31 5.34 5.333 5.333 0 0 0-5.31-5.34zM1380 2538v-16h11c.21 0-.21-.04 0 0a3.066 3.066 0 0 1 2.63 3.42c-1.14 5.47-5.78 10.03-12.09 11.92zm2-14v11c4.95-1.87 8.77-5.61 9.69-9.99a.765.765 0 0 0-.69-1.01c-.07-.01.07 0 0 0h-9zm-2 32v-16h11c.21 0-.21-.04 0 0a3.066 3.066 0 0 1 2.63 3.42c-1.14 5.47-5.78 10.03-12.09 11.92zm2-14v11c4.95-1.87 8.77-5.61 9.69-9.99a.765.765 0 0 0-.69-1.01c-.07-.01.07 0 0 0h-9zm-37-23v-16h-11.25c-.22 0 .21-.04 0 0-1.68.35-3.05 1.78-2.69 3.42 1.17 5.47 5.91 10.03 12.36 11.92zm-2.05-14v11c-5.06-1.87-8.97-5.61-9.9-9.99a.757.757 0 0 1 .7-1.01c.07-.01-.08 0 0 0h9.2zm2.05 32v-16h-11.25c-.22 0 .21-.04 0 0-1.68.35-3.05 1.78-2.69 3.42 1.17 5.47 5.91 10.03 12.36 11.92zm-2.05-14v11c-5.06-1.87-8.97-5.61-9.9-9.99a.757.757 0 0 1 .7-1.01c.07-.01-.08 0 0 0h9.2zm2.05 32v-16h-11.25c-.22 0 .21-.04 0 0-1.68.35-3.05 1.78-2.69 3.42 1.17 5.47 5.91 10.03 12.36 11.92zm-2.05-14v11c-5.06-1.87-8.97-5.61-9.9-9.99a.757.757 0 0 1 .7-1.01c.07-.01-.08 0 0 0h9.2z" transform="translate(-1331 -2498)"/></svg>