<svg xmlns="http://www.w3.org/2000/svg" width="47" height="35" viewBox="0 0 47 35"><path fill="#fff" d="M0 30.47v-.75c0-9.79 7.33-12.57 7.4-12.6l.24-.04h7.1a1.68 1.68 0 0 1 1.68-1.88h7c.94 0 1.71.75 1.71 1.68a1.7 1.7 0 0 1-1.71 1.68h-.5c-1.68 1.23-2.64 3.06-2.23 4.34.48 1.52 2.79 2.35 6.5 2.35 1.83 0 3.09-.55 3.85-1.68 2.35-3.49-.69-11.27-1.09-12.27-.25-.32-1-1.4-.74-2.64a3 3 0 0 1 1.52-1.95L30 3.4V4h-.3v.43h-1.51V4H28V0h2v1.87h1.21l.02.1.9 4.09c2.8-1.02 4.2.03 4.37.17l.32.27-.69 4.3-1.39.47c1.31 1.6 3.85 5.15 3.37 7.9 5.26-.99 8.5 3.35 8.54 3.4l.35.5-1.94 2.05c.67 1 1.06 2.2 1.06 3.5 0 3.52-2.9 6.38-6.47 6.38a6.48 6.48 0 0 1-6.2-4.54h-16.9a6.48 6.48 0 1 1-12.38 0zm39.8-6.73a4.92 4.92 0 0 0-5.11 4.88c0 2.7 2.23 4.89 4.96 4.89 2.74 0 4.96-2.2 4.96-4.89a4.92 4.92 0 0 0-4.81-4.88zm-8.26 5.24h1.51a7.42 7.42 0 0 1 1.69-4.8c1-1.1 2.38-1.73 4.1-1.89a6.58 6.58 0 0 1 1-.04c.58-.03 2.68 0 4.33 1.63l.86-.91a7.12 7.12 0 0 0-7.99-1.95 8.33 8.33 0 0 0-5.5 7.96zm-30.02 0h.53c.77-3.58 4.91-8.4 10.27-8.4 1.36 0 2.49.47 3.38 1.41 1.84 1.97 2.03 5.43 2.01 6.99h12.33c.02-1.04.17-2.03.45-2.95-.91.47-2.01.71-3.3.71-5.67 0-7.45-1.85-7.94-3.4-.48-1.5.06-3.22 1.46-4.78H7.81c-1.05.45-5.98 2.93-6.29 10.42zM31.7 11.65c.71 1.94 2.12 6.36 1.62 9.91a9.93 9.93 0 0 1 2.99-1.87c1.36-1.93-1.47-6.07-3.19-8.04zM14.59 23a2.95 2.95 0 0 0-2.27-.94c-4.31 0-7.91 3.87-8.73 6.92h12.6c.01-1.37-.15-4.43-1.6-5.98zm-4.23 10.51a4.97 4.97 0 0 0 4.59-3.04h-2.72c-.5.48-1.16.75-1.87.75-.7 0-1.37-.27-1.87-.75H5.77a4.98 4.98 0 0 0 4.59 3.04zm6.06-16.83a.2.2 0 0 0-.2.2c0 .1.09.2.2.2h7a.2.2 0 0 0 .2-.2.2.2 0 0 0-.2-.2zm23.36 14.54a2.67 2.67 0 0 1-2.68-2.65c0-1.46 1.2-2.65 2.68-2.65a2.67 2.67 0 0 1 2.69 2.65 2.67 2.67 0 0 1-2.69 2.65zm0-3.81c-.65 0-1.18.52-1.18 1.16 0 .64.53 1.16 1.18 1.16.66 0 1.19-.52 1.19-1.16 0-.64-.53-1.16-1.19-1.16zm-5-17.73l.4-2.48c-.51-.16-1.55-.25-3.27.56-.72.34-1.13.74-1.23 1.2-.1.45.13.92.3 1.2h2.36zm-6.35-5.5h1.02V4h-1.02z"/></svg>