<svg xmlns="http://www.w3.org/2000/svg" width="52" height="24.094"><defs><style>.cls-1{fill:#fff;fill-rule:evenodd}</style></defs><path id="icon" class="cls-1" d="M375.916 271.019A6.347 6.347 0 0 0 371 269h-1a5.319 5.319 0 0 0-1.987.2l-.163.055-.713-1.27.226-.081A12.848 12.848 0 0 1 371 267a7.416 7.416 0 0 0 0-1h-1a8.249 8.249 0 0 0-3.494.491l-.169.066-.616-1.1L366 265c.159.033.83-.028 1 0 .239.032-.179.152 0 0s0 .238 0 0v-4a1.849 1.849 0 0 0 0-1 1.8 1.8 0 0 0-1 0 3.6 3.6 0 0 0-3.171 2.333l-.039.1-.424.1-.073-.144c-.867-1.692-2.221-2.77-4.293-2.389-.05.006-.966-.009-1 0l-8.824 2.278a3.171 3.171 0 0 0-2.549 2.195l-.052.087A6.544 6.544 0 0 1 341 266c-1.434-.006-1.891-1.842-3-2a3.193 3.193 0 0 0-1.88.217.79.79 0 0 0-.2.644l.08.139-.319.088A11.134 11.134 0 0 0 329 266c-.185.115.085-.2 0 0a2.016 2.016 0 0 0 0 1c.082.2-.2-.084 0 0a3.239 3.239 0 0 0 1 0c2.456-.162 3.665-.874 6 0v2l.084.149A5.017 5.017 0 0 0 334 269c-4.233 0-8 2.811-8 7s2.767 8 7 8c4.14 0 8.1-3.427 8.194-7.521L341 276l3.221-.024 9.388-.007a2.36 2.36 0 0 0 .469-4.678l-5.8-1.493a1.082 1.082 0 0 0-.082-.017 3.052 3.052 0 0 0-1.805.157l-.363.143.578-2.5.249.171A3.947 3.947 0 0 0 349 268h9c2.418 0 4.677-1.481 4.728-3.734v-.159l.307-.069.088.131 1.753 3.127-.163.1A13.812 13.812 0 0 0 362 270c-.139.166-.02-.215 0 0s-.03 1 0 1a2.582 2.582 0 0 0 1.468-.384 9.029 9.029 0 0 1 2.02-1.783l.185-.12.708 1.259-.157.1a7.226 7.226 0 0 0-3.2 6.246A8 8 0 0 0 371 284c4.234 0 7-3.811 7-8a6.5 6.5 0 0 0-2.084-4.981zm-38.94.384l.2.149A6.514 6.514 0 0 1 339 275h-2l-.406.019a3.292 3.292 0 0 0-.744-1.073l-.108-.1zM339 277c-.214 3.121-2.834 5-6 5-3.332 0-5-2.706-5-6s1.668-5 5-5a7.738 7.738 0 0 1 2 0l.518-.337-1.226 2.426-.152-.026a3.408 3.408 0 0 0-.622-.06 3.3 3.3 0 1 0 3.28 3.912L337 277h2zm-3.778-.693a1.7 1.7 0 1 1-.5-1.19 1.659 1.659 0 0 1 .5 1.19zM341 275l-.019-.482a7.617 7.617 0 0 0-3.123-4.473L338 270v-2h1c2.216 1.419 4.448 3.452 5 6v1h-3zm3-4a11.22 11.22 0 0 0-3-3l-.395-.741L341 267c1.207 0 2.864-.008 4 0l.106-.211zm2 1a18.79 18.79 0 0 1 2 0l6 1v1c0 .409.413 0 0 0h-7c-.841 0-.972-.326-.972-1.156 0-.402-.028-.844-.028-.844zm14.961-6.956l-.042.01c-.406 1-1.719.946-2.919.946h-10c-.9 0-.856.084-.856-.713a1.51 1.51 0 0 1 1.329-1.419l.1.188-.048-.2 9.08-2.17a3.215 3.215 0 0 1 .639-.067 2.977 2.977 0 0 1 2.295 1.047l.1.124-.226.3-.073.016a.807.807 0 0 0-.5.362.8.8 0 0 0-.1.614.821.821 0 0 0 .99.6l.02.078.25.055zM364 263a2.073 2.073 0 0 1 1-1h1v2h-1a2.1 2.1 0 0 1-1-1zm6 19c-3.331 0-5-2.7-5-6 0-1.923.4-3.355 1.987-4.479l.188-.132 1.316 2.347-.131.108a3.281 3.281 0 0 0-1.211 2.542 3.341 3.341 0 1 0 3.34-3.3 3.175 3.175 0 0 0-.338.018l-.135.014-1.363-2.429.253-.068c.52-.138 1.564.382 2.094.382 3.332 0 5 1.7 5 5a6 6 0 0 1-6 5.997zm-1.213-5.614a1.7 1.7 0 1 1 1.7 1.683 1.7 1.7 0 0 1-1.7-1.683zm-10.538-.251l2.486-5.357a.8.8 0 0 0 .014-.638.8.8 0 0 0-.454-.449l-1.226-.484a.825.825 0 0 0-.627.009.808.808 0 0 0-.437.445.8.8 0 0 0 .008.62.809.809 0 0 0 .45.432l.424.165-.091.2c-.7 1.518-2.046 4.416-2.088 4.512A1.666 1.666 0 0 1 355 277h-11v2h11c1.627 0 2.7-1.3 3.249-2.865z" transform="translate(-326 -259.906)"/></svg>