<svg xmlns="http://www.w3.org/2000/svg" width="70" height="23"><path fill="#fff" d="M63.69 20.7h3.59c.87 0 2.41-.3 2.65-1.43.17-.6-.11-1.05-.25-1.25a.37.37 0 0 0-.04-.1c-.05-.15-.09-.25-.03-.54.33-1.15.66-6.23-.92-7.3l-.02-.02c-.95-.62-3.83-2.53-16.27-3.4C41.89 1.13 40.04.56 37.07.26c-3.32-.4-7.86-.32-12.15.23-3.24.35-9.01 2.38-12.84 3.72l-1.37.48-.68.25c-.5.18-1.02.38-1.12.38h-.03c-.45.13-2.58.32-4.28.46l-.96.09c-.18 0-.54.04-.93.34-.5.41-.76 1.23-.76 2.43-1.77 6.5-.76 10.14.36 11 .25.26.49.5 6.03.82.46 0 .9-.35.99-.8 0-.5-.32-.88-.8-.98a44.91 44.91 0 0 1-5.07-.46c-.44-.58-1.13-3.7.36-9.22v-.26c0-.6 0-.94.05-1.1L5 7.55c1.47-.11 3.7-.28 4.34-.46l.15-.04c.3-.1.85-.27 1.86-.67l.48-.18c3.5-1.24 10.03-3.55 13.37-3.93 4.07-.47 8.55-.56 11.7-.24 2.7.3 4.44.87 14.86 6.31.11.1.29.1.38.1 8.21.56 13.3 1.6 15.57 3.15.48.4.61 4.04.28 5.35-.29.88-.13 1.43.11 1.86-.23.06-.55.12-.81.12h-3.51c-.54 0-.9.36-.9.89 0 .51.35.89.82.89zM15.45 23a5.9 5.9 0 0 0 5.92-5.88 5.9 5.9 0 0 0-5.92-5.87 5.9 5.9 0 0 0-5.92 5.87 5.9 5.9 0 0 0 5.92 5.87zm41.46 0a5.9 5.9 0 0 0 5.92-5.88 5.9 5.9 0 0 0-5.92-5.87 5.9 5.9 0 0 0-5.92 5.87 5.9 5.9 0 0 0 5.92 5.87zm-41.46-9.97a4.11 4.11 0 0 1 4.12 4.09 4.11 4.11 0 1 1-8.25 0c0-2.3 1.81-4.1 4.13-4.1zm41.46 0a4.11 4.11 0 0 1 4.13 4.09c0 2.26-1.85 4.1-4.13 4.1a4.11 4.11 0 0 1-4.12-4.1c0-2.3 1.81-4.1 4.12-4.1zm-34.45 7.75h27.28c.53 0 .89-.36.89-.9a.84.84 0 0 0-.89-.88H22.46c-.53 0-.9.36-.9.89 0 .45.45.89.9.89zM66.9 14.6h.06c.48 0 .9-.38.9-.81a.96.96 0 0 0-.8-.97l-1.4-.2a.83.83 0 0 0 .11-.93.98.98 0 0 0-.63-.47c-.2-.04-.4 0-.55.12-.91.44-1.35 1.07-1.24 1.75 0 .37.35 1.27 3.55 1.5zM4.52 12.63c.19 0 .36-.09.53-.17 1-.78 1.7-1.24 2.14-1.42.72-.35 1.1-.71 1.1-1.6 0-.38-.15-.73-.43-1.01-.5-.44-1.35-.66-2.54-.66a.9.9 0 0 0-.9.89c0 .55.47.89.9.89.27 0 .54 0 .76.02h-.01c-.44.25-1.17.67-2.17 1.46a.84.84 0 0 0-.32.61c-.01.25.07.48.23.65.15.22.4.34.71.34zm28.79-.4h2.8c.53 0 .89-.35.89-.88 0-.54-.36-.9-.9-.9h-2.8c-.53 0-.89.36-.89.9 0 .53.36.89.9.89zm14.67-3.32a.9.9 0 0 0 .9-.89c0-.53-.36-.89-.9-.89-.09 0-20.57-.54-22.4-.63l-.5-.03a9.44 9.44 0 0 0-.86-.05c-3.7-.18-5.98-.45-6.4-.77a.87.87 0 0 0-1.25.01.86.86 0 0 0 0 1.25c.74.73 3.03.97 7.56 1.21.32 0 .6.03.86.05l.5.03c1.72.24 21.41.71 22.49.71zM33.7 6.41c.16 0 .34-.05.5-.16.46-.28.57-.77.28-1.22L33 2.68c-.29-.45-.78-.56-1.24-.28a.89.89 0 0 0-.42.55c-.05.23 0 .46.14.68l1.49 2.34c.18.29.44.44.73.44zM15.45 18.25c.62 0 1.13-.51 1.13-1.13a1.13 1.13 0 0 0-2.27 0c0 .62.51 1.13 1.14 1.13zm41.59.06c.65 0 1.18-.52 1.18-1.17 0-.64-.53-1.16-1.18-1.16-.66 0-1.18.5-1.18 1.16 0 .65.53 1.17 1.18 1.17z"/></svg>