<svg xmlns="http://www.w3.org/2000/svg" width="15" height="12"><defs><style>.cls-1{fill:#028fcc;fill-rule:evenodd}</style></defs><path id="icon" class="cls-1" d="M743.244 258l.018.016a.352.352 0 0 0 .467 0l.017-.016 5.254-4c.018-.016 0-1 0-1s-.352-.023-.893-.031L738 253v1zm7.756-2s-.95-.03-1 0l-5.307 4.033a1.9 1.9 0 0 1-1.186.424 1.814 1.814 0 0 1-1.185-.424L737 256a9.519 9.519 0 0 0-1 0v6.271a2.8 2.8 0 0 0 2.875 2.711h9.272a2.8 2.8 0 0 0 2.869-2.711z" transform="translate(-736 -252.969)"/></svg>