<svg xmlns="http://www.w3.org/2000/svg" width="48.031" height="33"><defs><style>.cls-1{fill:#fff;fill-rule:evenodd}</style></defs><path id="icon" class="cls-1" d="M413 401h15v2h-15v-2zm-7-2a3 3 0 1 1-3 3 3 3 0 0 1 3-3zm0 10a3 3 0 1 1-3 3 3 3 0 0 1 3-3zm7 2h15v2h-15v-2zm-10 10h12v2h-12v-2zm24.9-.011l8.607 8.607a1 1 0 0 1-1.414 1.414l-8.607-8.607a1 1 0 0 1 1.414-1.414zm21.347-4.708l-13.937 13.937a1.038 1.038 0 0 0 1.469 1.468l13.936-13.937a1.038 1.038 0 1 0-1.465-1.468z" transform="translate(-403 -399)"/></svg>