<svg xmlns="http://www.w3.org/2000/svg" width="42" height="40"><path fill="#fff" d="M4.02 9.27A4.08 4.08 0 0 1 0 5.13C0 2.84 1.8.99 4.02.99a4.08 4.08 0 0 1 4.02 4.14 4.1 4.1 0 0 1-4.02 4.14zm0-6.07c-1.04 0-1.89.86-1.89 1.94 0 1.07.85 1.94 1.89 1.94S5.9 6.21 5.9 5.14A1.9 1.9 0 0 0 4.02 3.2zM20.5 9.27a4.08 4.08 0 0 1-4.02-4.14c0-2.29 1.8-4.14 4.02-4.14a4.08 4.08 0 0 1 4.02 4.14 4.1 4.1 0 0 1-4.02 4.14zm0-6.07a1.9 1.9 0 0 0-1.88 1.94c0 1.07.84 1.94 1.88 1.94s1.89-.87 1.89-1.94c0-1.08-.85-1.94-1.89-1.94zM4.02 39A4.08 4.08 0 0 1 0 34.86c0-2.28 1.8-4.13 4.02-4.13a4.08 4.08 0 0 1 4.02 4.13A4.09 4.09 0 0 1 4.02 39zm0-6.07c-1.04 0-1.89.87-1.89 1.94 0 1.07.85 1.94 1.89 1.94s1.88-.87 1.88-1.94c0-1.07-.84-1.94-1.88-1.94zm16.48 6.08a4.09 4.09 0 0 1-4.01-4.15 4.1 4.1 0 0 1 4.03-4.13 4.06 4.06 0 0 1 3.93 3.33 4.14 4.14 0 0 1-3.95 4.95zm0-6.08a1.92 1.92 0 0 0-1.83 2.31 1.87 1.87 0 0 0 2.2 1.51 1.93 1.93 0 0 0 1.47-2.27 1.9 1.9 0 0 0-1.84-1.55zM36.98 9.27a4.08 4.08 0 0 1-4.01-4.15A4.08 4.08 0 0 1 36.99.99a4.07 4.07 0 0 1 3.94 3.33 4.14 4.14 0 0 1-3.95 4.95zm0-6.08a1.93 1.93 0 0 0-1.85 2.32 1.88 1.88 0 0 0 2.21 1.52 1.94 1.94 0 0 0 1.48-2.28 1.9 1.9 0 0 0-1.84-1.56zm1.08 8.69V20c0 .61-.48 1.1-1.07 1.1H21.57v7.02c0 .6-.48 1.1-1.07 1.1-.59 0-1.06-.5-1.06-1.1V21.1H5.09v7.02c0 .6-.48 1.1-1.07 1.1a1.1 1.1 0 0 1-1.07-1.1V11.88c0-.6.48-1.1 1.07-1.1.59 0 1.07.5 1.07 1.1v7.02h14.35v-7.02c0-.6.47-1.1 1.06-1.1.59 0 1.07.5 1.07 1.1v7.02h14.35v-7.02c0-.6.48-1.1 1.07-1.1.59 0 1.07.5 1.07 1.1z"/></svg>