<svg xmlns="http://www.w3.org/2000/svg" width="20" height="20.062"><defs><style>.cls-1{fill:#028fcc;fill-rule:evenodd}</style></defs><path id="icon" class="cls-1" d="M332.293 152.313a10.035 10.035 0 0 1-3.385-2.251A9.892 9.892 0 0 1 326 143a10.356 10.356 0 0 1 2.908-7.258 10.46 10.46 0 0 1 14.183 0A10.357 10.357 0 0 1 346 143a9.893 9.893 0 0 1-2.909 7.062 10.045 10.045 0 0 1-3.385 2.251 9.978 9.978 0 0 1-7.413 0zM336 134.99a7.968 7.968 0 0 0-5.663 2.213 8.1 8.1 0 0 0-1.938 3.163.507.507 0 0 0 .6.634c1.318-.051 3.416.03 4 0v2a3.03 3.03 0 0 0 .719 2.273 3.2 3.2 0 0 0 4.561 0A3.031 3.031 0 0 0 339 143c0-.825.032-1.27 0-2 .583.03 2.682-.051 4 0a.506.506 0 0 0 .6-.634 8.106 8.106 0 0 0-1.937-3.163A7.97 7.97 0 0 0 336 134.99zm1.015 6.967a1.5 1.5 0 0 0-2.031 0 1.442 1.442 0 0 0 1.691 2.3 1.462 1.462 0 0 0 .34-.255 1.447 1.447 0 0 0 0-2.043zm-.754 1.555a.593.593 0 1 0-.522 0 .6.6 0 0 0 .522 0zM338 151a7.281 7.281 0 0 0 3.663-2.361 8.094 8.094 0 0 0 2.213-4.248c.108-.446-.082-.583-.415-.572a9.656 9.656 0 0 0-1.983.11c-2.279.435-3.439 1.545-3.5 4.1-.146.929.1 2.183.021 2.968zm-4 0c-.078-.785.01-1.945.02-2.968-.029-2.589-1.219-3.668-3.5-4.1a9.656 9.656 0 0 0-1.983-.11c-.333-.011-.523.126-.415.572a8.088 8.088 0 0 0 2.214 4.248A7.273 7.273 0 0 0 334 151z" transform="translate(-326 -132.969)"/></svg>