<svg xmlns="http://www.w3.org/2000/svg" width="17" height="17"><defs><style>.cls-1{fill:#028fcc;fill-rule:evenodd}</style></defs><path id="insta_normal" class="cls-1" d="M682 4285c2.269 0 3.1-.04 4 0 .828.04 1.212-.24 1.511-.12a2.533 2.533 0 0 1 .977.63 2.629 2.629 0 0 1 .636.98c.116.3-.162.68-.124 1.51.041.9 0 .73 0 3s.041 3.1 0 4a16.435 16.435 0 0 1 0 2 1 1 0 0 1-.512.49 2.533 2.533 0 0 1-.977.63c-.3.12-.683-.16-1.511-.12-.9.04-1.731 0-4 0s-2.1.04-3 0c-.828-.04-1.212.24-1.511.12a2.533 2.533 0 0 1-.977-.63 1 1 0 0 1-.512-.49 16.435 16.435 0 0 1 0-2c-.041-.9 0-1.73 0-4s-.041-2.1 0-3c.038-.83-.24-1.21-.124-1.51a2.629 2.629 0 0 1 .636-.98 2.533 2.533 0 0 1 .977-.63c.3-.12.683.16 1.511.12.9-.04.731 0 3 0m.5-2c-2.308 0-2.6.01-3.5.05a6.458 6.458 0 0 0-2.063.4 4.355 4.355 0 0 0-2.485 2.48 6.247 6.247 0 0 0-.395 2.07c-.041.9-.051 1.19-.051 3.5s.01 2.6.051 3.5a6.247 6.247 0 0 0 .395 2.07 4.355 4.355 0 0 0 2.485 2.48 6.458 6.458 0 0 0 2.063.4c.906.04 1.2.05 3.5.05s2.6-.01 3.5-.05a6.458 6.458 0 0 0 2.063-.4 4.355 4.355 0 0 0 2.485-2.48 6.247 6.247 0 0 0 .395-2.07c.041-.9.051-1.19.051-3.5s-.01-2.6-.051-3.5a6.247 6.247 0 0 0-.395-2.07 4.355 4.355 0 0 0-2.485-2.48 6.458 6.458 0 0 0-2.063-.4c-.906-.04-1.2-.05-3.5-.05zm0 4.14a4.36 4.36 0 1 0 4.363 4.36 4.36 4.36 0 0 0-4.363-4.36zm0 7.19a2.83 2.83 0 1 1 2.832-2.83 2.833 2.833 0 0 1-2.832 2.83zm5.555-7.37a1.02 1.02 0 1 1-1.019-1.02 1.015 1.015 0 0 1 1.019 1.02z" transform="translate(-674 -4283)"/></svg>