<svg xmlns="http://www.w3.org/2000/svg" width="179" height="47"><path fill="#fff" d="M12.58 35.56h-4.1v3.08H5.23v-3.08h-4.1V4.3h11.45v31.27zm-1.29-6.1a4.42 4.42 0 0 0-4.36-4.44 4.47 4.47 0 0 0-.09 8.95c2.45.01 4.45-2.01 4.45-4.5zm0-18.58a4.48 4.48 0 0 0-4.33-4.5 4.48 4.48 0 0 0-4.55 4.5c0 2.48 1.99 4.5 4.42 4.51 2.48 0 4.46-2 4.46-4.5zM6.85 15.7c-2.46 0-4.43 2-4.44 4.5a4.48 4.48 0 0 0 4.4 4.5 4.48 4.48 0 0 0 4.48-4.39 4.47 4.47 0 0 0-4.44-4.6zm.02-12.42H.67C.25 3.28 0 3.03 0 2.6v-.9c0-.44.25-.7.68-.7h12.39c.41 0 .67.26.67.68v.96c-.01.38-.26.64-.64.64H6.87zM5.81 43.11v-2.92c0-.53.36-.93.88-.97.29-.02.58 0 .82.18.25.19.38.44.38.74v5.93c0 .5-.39.9-.9.93-.13 0-.27 0-.41-.02a.92.92 0 0 1-.77-.9V43.1zM6.88 8.09a2.73 2.73 0 0 1 2.7 2.8 2.73 2.73 0 0 1-2.71 2.67 2.73 2.73 0 0 1-2.69-2.79 2.73 2.73 0 0 1 2.7-2.68zm0 14.85a2.73 2.73 0 0 1-2.7-2.79 2.72 2.72 0 0 1 2.73-2.68 2.72 2.72 0 0 1 2.67 2.8 2.73 2.73 0 0 1-2.7 2.67zm63.8 14.86a2.5 2.5 0 0 1-.94 2.07c-.63.5-1.5.75-2.61.75a6.15 6.15 0 0 1-2.72-.52v-1.53a7.23 7.23 0 0 0 2.83.69c.63 0 1.1-.13 1.4-.37.3-.24.45-.57.45-.98 0-.37-.13-.68-.41-.94a6.28 6.28 0 0 0-1.72-.91 4.58 4.58 0 0 1-1.89-1.25 2.64 2.64 0 0 1-.55-1.7c0-.82.29-1.47.87-1.95a3.59 3.59 0 0 1 2.34-.7c.94 0 1.88.2 2.81.62l-.51 1.32a6.07 6.07 0 0 0-2.34-.56c-.52 0-.91.11-1.18.34-.27.23-.4.53-.4.9 0 .26.05.48.16.67.11.18.29.35.53.51.25.17.69.38 1.33.65.72.3 1.25.58 1.58.84.34.26.58.56.74.89.16.33.23.71.23 1.16zm5.43 2.69h-1.6v-8.5h-2.89v-1.4h7.37V32h-2.88zm13.01-4.96c0 1.6-.4 2.86-1.2 3.75-.79.9-1.92 1.34-3.39 1.34-1.48 0-2.61-.44-3.41-1.33-.79-.88-1.19-2.14-1.19-3.78 0-1.63.4-2.88 1.2-3.76.8-.87 1.94-1.3 3.42-1.3a4.3 4.3 0 0 1 3.38 1.32c.79.9 1.19 2.14 1.19 3.76zm-7.48 0c0 1.22.24 2.14.73 2.77.49.63 1.21.94 2.16.94.96 0 1.68-.3 2.16-.93.49-.62.73-1.55.73-2.78 0-1.22-.24-2.13-.72-2.76-.48-.63-1.2-.94-2.15-.94-.96 0-1.69.31-2.18.94-.49.63-.73 1.54-.73 2.76zm13.93-3.69c-.92 0-1.64.33-2.17.99a4.24 4.24 0 0 0-.79 2.73c0 1.2.25 2.13.76 2.75.51.62 1.24.93 2.2.93.42 0 .82-.04 1.21-.12.39-.09.8-.2 1.22-.32v1.38c-.77.3-1.65.44-2.62.44-1.44 0-2.54-.44-3.31-1.31-.77-.88-1.15-2.13-1.15-3.77 0-1.03.19-1.93.56-2.7.37-.77.91-1.36 1.62-1.77a4.9 4.9 0 0 1 2.49-.61c1 0 1.93.2 2.77.63l-.57 1.35c-.33-.16-.68-.3-1.05-.42a3.77 3.77 0 0 0-1.17-.18zm12.11 8.65h-1.86L102.74 36l-.94.78v3.7h-1.6v-9.9h1.6v4.73c.44-.54.87-1.06 1.31-1.56l2.65-3.16h1.82a637.52 637.52 0 0 1-3.68 4.33zm9.04 0h-1.61v-4.46h-4.52v4.46h-1.6v-9.9h1.6v4.05h4.52V30.6h1.61zm11.41-4.96c0 1.6-.4 2.86-1.2 3.75-.79.9-1.92 1.34-3.39 1.34-1.48 0-2.61-.44-3.41-1.33-.79-.88-1.19-2.14-1.19-3.78 0-1.63.4-2.88 1.2-3.76.8-.87 1.94-1.3 3.42-1.3 1.45 0 2.58.43 3.38 1.32.79.9 1.19 2.14 1.19 3.76zm-7.48 0c0 1.22.24 2.14.73 2.77.48.63 1.21.94 2.16.94.96 0 1.67-.3 2.16-.93a4.5 4.5 0 0 0 .73-2.78c0-1.22-.24-2.13-.72-2.76-.48-.63-1.2-.94-2.15-.94-.96 0-1.69.31-2.18.94-.49.63-.73 1.54-.73 2.76zm9.76 4.96v-9.9h1.6v8.51h4.16v1.39zm11.93 0l-2.84-8.26h-.05c.07 1.22.11 2.37.11 3.45v4.8h-1.46V30.6h2.26l2.73 7.87h.04l2.8-7.87h2.27v9.89h-1.54v-4.9a79.1 79.1 0 0 1 .1-3.35h-.06l-2.94 8.25zM34.65 23V8h2.45v15zm18.48 0h-3l-7.37-11.95h-.09l.06.67c.09 1.27.14 2.43.14 3.49V23h-2.23V8h2.98l7.35 11.9h.06a98.76 98.76 0 0 1-.14-4.04V8.01h2.24zm8.69 0h-2.45V10.11h-4.41v-2.1h11.27v2.1h-4.41zm15.3 0h-8.48V8h8.48v2.08h-6.03v4.08h5.65v2.05h-5.65v4.7h6.03zm16 0h-3l-7.37-11.95h-.09l.06.67c.09 1.27.14 2.43.14 3.49V23h-2.23V8h2.98l7.35 11.9h.06a98.76 98.76 0 0 1-.14-4.04V8.01h2.24zm12.15-4.07c0 1.33-.48 2.38-1.44 3.14a6.3 6.3 0 0 1-3.99 1.14c-1.7 0-3.08-.27-4.16-.8V20.1a11.27 11.27 0 0 0 4.32 1.03c.97 0 1.69-.18 2.15-.55.46-.37.69-.87.69-1.49 0-.56-.21-1.03-.63-1.42a9.67 9.67 0 0 0-2.63-1.39 6.97 6.97 0 0 1-2.89-1.9 4.01 4.01 0 0 1-.84-2.56c0-1.25.45-2.23 1.33-2.95a5.55 5.55 0 0 1 3.58-1.08c1.44 0 2.87.32 4.29.95l-.78 2a9.35 9.35 0 0 0-3.57-.84c-.79 0-1.39.17-1.8.51-.41.35-.62.8-.62 1.37 0 .4.08.73.25 1 .16.28.43.54.81.79.37.24 1.05.57 2.03.97 1.1.46 1.9.89 2.42 1.28.51.4.89.85 1.13 1.34.23.5.35 1.1.35 1.77zm3.36 4.07V8h2.45v15zm14.54-15h2.54l-5.25 15h-2.58l-5.23-15h2.52l3.13 9.33a23 23 0 0 1 .88 3.28c.09-.52.22-1.12.41-1.8.18-.69.33-1.2.45-1.52zm15.9 15h-2.84l-4.71-6.79-1.44 1.18V23h-2.45V8h2.45v7.17c.67-.82 1.34-1.61 2-2.37l4.05-4.8h2.79c-2.62 3.09-4.5 5.28-5.63 6.58zm13.31-15v9.7a5.8 5.8 0 0 1-.71 2.92 4.76 4.76 0 0 1-2.06 1.91c-.9.45-1.98.67-3.23.67-1.86 0-3.3-.49-4.34-1.47a5.34 5.34 0 0 1-1.54-4.06V8h2.46v9.48c0 1.24.28 2.15.86 2.74.57.59 1.45.88 2.64.88 2.31 0 3.47-1.21 3.47-3.64V8.01zm6.7 6.98h1.7c1.14 0 1.97-.21 2.48-.64.51-.42.77-1.05.77-1.88 0-.85-.28-1.46-.83-1.83a4.54 4.54 0 0 0-2.5-.55h-1.62zm0 2.03V23h-2.45V8h4.23c1.94 0 3.37.37 4.3 1.1.93.72 1.39 1.81 1.39 3.28 0 1.86-.97 3.2-2.91 3.99l4.23 6.63h-2.78l-3.59-5.99zm19.19 1.92c0 1.33-.48 2.38-1.44 3.14a6.32 6.32 0 0 1-3.99 1.14c-1.7 0-3.09-.27-4.17-.8V20.1c.69.32 1.41.57 2.18.76.77.18 1.49.27 2.15.27.97 0 1.69-.18 2.15-.55.46-.37.69-.87.69-1.49 0-.56-.21-1.03-.63-1.42a9.67 9.67 0 0 0-2.63-1.39 6.9 6.9 0 0 1-2.89-1.9 4.01 4.01 0 0 1-.84-2.56c0-1.25.44-2.23 1.33-2.95a5.53 5.53 0 0 1 3.58-1.08c1.44 0 2.86.32 4.29.95l-.78 2a9.44 9.44 0 0 0-3.57-.84c-.79 0-1.4.17-1.81.51-.41.35-.61.8-.61 1.37 0 .4.08.73.25 1 .16.28.43.54.81.79.37.24 1.05.57 2.03.97 1.1.46 1.9.89 2.42 1.28.51.4.88.85 1.12 1.34.24.5.36 1.1.36 1.77z"/></svg>