<svg xmlns="http://www.w3.org/2000/svg" width="41.03" height="38"><defs><style>.cls-1{fill:#fff;fill-rule:evenodd}</style></defs><path id="Boka_forarprov" class="cls-1" d="M1347.02 3685.27a4.142 4.142 0 1 1 4.02-4.14 4.1 4.1 0 0 1-4.02 4.14zm0-6.07a1.936 1.936 0 1 0 1.88 1.93 1.91 1.91 0 0 0-1.88-1.93zm16.48 6.07a4.142 4.142 0 1 1 4.02-4.14 4.092 4.092 0 0 1-4.02 4.14zm0-6.07a1.936 1.936 0 1 0 1.89 1.93 1.91 1.91 0 0 0-1.89-1.93zm-16.48 35.8a4.137 4.137 0 1 1 4.02-4.14 4.086 4.086 0 0 1-4.02 4.14zm0-6.07a1.941 1.941 0 1 0 1.88 1.94 1.911 1.911 0 0 0-1.88-1.94zm16.48 6.08a4.142 4.142 0 1 1 3.95-4.95 4.14 4.14 0 0 1-3.17 4.87 3.967 3.967 0 0 1-.78.08zm0-6.08a1.553 1.553 0 0 0-.37.04 1.923 1.923 0 0 0-1.46 2.27 1.866 1.866 0 0 0 2.2 1.51 1.929 1.929 0 0 0 1.47-2.27 1.9 1.9 0 0 0-1.84-1.55zm16.48-23.66a4.142 4.142 0 1 1 3.95-4.95 4.07 4.07 0 0 1-3.95 4.95zm0-6.08a1.637 1.637 0 0 0-.38.04 1.927 1.927 0 0 0-1.47 2.28 1.877 1.877 0 0 0 2.21 1.52 1.941 1.941 0 0 0 1.48-2.28v-.01a1.9 1.9 0 0 0-1.84-1.55zm.01 7.59a1.133 1.133 0 0 0-.99 1.22v7h-14v-7a1.631 1.631 0 0 0-1.5-1.22c-.59 0-.5.61-.5 1.22v7h-15v-7a1.126 1.126 0 0 0-.98-1.22 1.091 1.091 0 0 0-1.07 1.1v16.24a1.07 1.07 0 1 0 2.14 0v-7.02h14.35v7.02a1.065 1.065 0 1 0 2.13 0v-7.02h15.42a1.084 1.084 0 0 0 1.07-1.1v-8.12a1.091 1.091 0 0 0-1.07-1.1z" transform="translate(-1343 -3677)"/></svg>