<svg xmlns="http://www.w3.org/2000/svg" width="63" height="63"><defs><style>.cls-1{fill:#9fadb9;fill-rule:evenodd}</style></defs><path id="bromma" class="cls-1" d="M977.657 2525.88c4.556-7.58 4.057-17.13-1.214-23.22-4.742-5.48-13.1-5.65-14.1-5.65h-.011c-.09 0-8.588-.12-13.954 5.61-5.844 6.24-5.358 16.44-1.229 23.28 2.984 4.94 13.366 16.54 15.221 16.54l.074.66v-.66c1.848 0 12.225-11.61 15.213-16.56zm-15.669 14.18c-2.426-2.01-9.909-9.82-13.146-15.18-3.642-6.03-4.551-15.4.937-20.87 4.915-4.9 12.634-5.03 12.711-5.03.333 0 8.214.05 12.46 4.96 4.641 5.38 5.067 14.18 1.014 20.93-3.253 5.39-10.723 13.2-13.141 15.19l-.418.34zm8.714-25.63a8.42 8.42 0 0 0-8.423-8.39h-.006a8.42 8.42 0 0 0-5.959 2.46 8.33 8.33 0 0 0-2.468 5.94 8.417 8.417 0 0 0 8.428 8.38h.006a8.414 8.414 0 0 0 8.42-8.39zm-8.422 6.42a6.45 6.45 0 0 1-6.457-6.42 6.451 6.451 0 0 1 6.451-6.43 6.425 6.425 0 1 1 .006 12.85zm16.311 29.33l.315-.16.308.17c1.634.92 6.5 4.23 8.84 5.82 4.925 3.34 4.931 3.33 5.532 2.97l.347-.22.076-.32c-.125-1.92-2.6-23.34-3.221-24.76-.111-.16-1.343-1.56-7.579-8.6l-1.481 1.3c2.721 3.07 6.41 7.23 7.212 8.14l.123.14.03.18c.384 2.28 1.993 14.23 2.674 20.01l.168 1.43-1.19-.82c-.515-.35-1.058-.72-1.576-1.07-5.583-3.8-7.869-5.29-9.064-5.94L980 2548v-15h-2v15l-.559.59c-2.188 1.15-6.616 3.89-13.164 8.16L963 2557v-10h-2v10l-.719-.54c-6.87-4.46-11.163-7.1-13.126-8.06l-.155.6v-16h-2v16l-.507-.32c-1.381.81-4 2.56-8.659 5.73-.323.22-.66.45-.993.68l-1.78 1.22.168-1.43c.7-5.99 2.274-17.73 2.654-20l.03-.18.121-.14c.976-1.12 4.554-5.16 7.208-8.16l-1.481-1.3c-6.191 6.99-7.506 8.5-7.6 8.63-.615 1.36-3.049 22.9-3.173 24.73l.078.34.355.21c.6.36.608.37 5.524-2.97l.811-.55c2.776-1.89 6.576-4.47 8.019-5.28l.3-.17.312.16c2.122 1.07 9.542 5.77 15.446 9.63l.226.15.833.03.263-.18c5.866-3.85 13.266-8.54 15.436-9.65zm12.188-16.52l.008.01zm.011.02l.56-.33z" transform="translate(-931 -2497)"/></svg>