<svg xmlns="http://www.w3.org/2000/svg" width="41.031" height="38"><defs><style>.cls-1{fill:#fff;fill-rule:evenodd}</style></defs><path id="icon" class="cls-1" d="M494 407a3.84 3.84 0 0 1-4-3.87 4.02 4.02 0 1 1 8.037 0A3.874 3.874 0 0 1 494 407zm0-6a2 2 0 1 0 2 2 2.066 2.066 0 0 0-2-2zm32 9v7h-14v-7h-2v7h-15v-7h-2v16h2v-7h15v7h2v-7h16v-9h-2zm-15-3a3.84 3.84 0 0 1-4-3.87 4.02 4.02 0 1 1 8.037 0A3.874 3.874 0 0 1 511 407zm0-6a2 2 0 1 0 2 2 2.066 2.066 0 0 0-2-2zm16 6a3.84 3.84 0 0 1-4-3.87 4.02 4.02 0 1 1 8.037 0A3.874 3.874 0 0 1 527 407zm0-6a2 2 0 1 0 2 2 2.066 2.066 0 0 0-2-2zm-33 36a3.84 3.84 0 0 1-4-3.87 4.02 4.02 0 1 1 8.037 0A3.874 3.874 0 0 1 494 437zm0-6a2 2 0 1 0 2 2 2.066 2.066 0 0 0-2-2zm17 6a3.84 3.84 0 0 1-4-3.87 4.02 4.02 0 1 1 8.037 0A3.874 3.874 0 0 1 511 437zm0-6a2 2 0 1 0 2 2 2.066 2.066 0 0 0-2-2z" transform="translate(-490 -399)"/></svg>