<svg xmlns="http://www.w3.org/2000/svg" width="38" height="46"><defs><style>.cls-1{fill:#fff;fill-rule:evenodd}</style></defs><path id="Korkortsbehorigheter" class="cls-1" d="M583 3713.24v-6.1a.979.979 0 0 0-1.957 0v5.05l-5.662 4.86h-28.426v-42.11h34.088v18.76a.979.979 0 0 0 1.957 0v-19.73a.972.972 0 0 0-.979-.97h-36.044a.972.972 0 0 0-.978.97v44.05a.981.981 0 0 0 .978.98h30.4a.975.975 0 0 0 .731-.33l5.64-4.79a.974.974 0 0 0 .252-.64zm-5.663 2.25l2.571-1.35zM553 3681h21a1 1 0 0 1 0 2h-21a1 1 0 1 1 0-2zm0 8h21a1 1 0 0 1 0 2h-21a1 1 0 1 1 0-2zm0 8h8a1 1 0 0 1 0 2h-8a1 1 0 1 1 0-2z" transform="translate(-545 -3673)"/></svg>