<svg xmlns="http://www.w3.org/2000/svg" width="63" height="63"><defs><style>.cls-1{fill:#9fadb9;fill-rule:evenodd}</style></defs><path id="Kurser_1" class="cls-1" d="M663 1860a9.036 9.036 0 0 1-9.1-9.38 9.589 9.589 0 1 1 19.178 0c0 5.28-4.818 9.38-10.078 9.38zm.489-17.01a7.605 7.605 0 0 0-7.591 7.63c0 4.21 2.907 7.38 7.1 7.38s8.08-3.17 8.08-7.38a7.605 7.605 0 0 0-7.589-7.63zm7.591 61.01h-2v-15.18h1A2.631 2.631 0 0 0 673 1886v-19a2.83 2.83 0 0 0-3-3h-13a2.83 2.83 0 0 0-3 3v19a2.614 2.614 0 0 0 2.9 2.82l1.1.18v15h-2v-13a4.911 4.911 0 0 1-4-5v-19a4.794 4.794 0 0 1 5-5h13a4.794 4.794 0 0 1 5 5v19a4.651 4.651 0 0 1-3.986 4.76V1904h.066zm-29.574-35.99a7.51 7.51 0 1 1 7.5-7.51 7.494 7.494 0 0 1-7.5 7.51zm0-13a5.5 5.5 0 1 0 5.5 5.49 5.52 5.52 0 0 0-5.5-5.49zM647 1900h-2v-11h1a1.89 1.89 0 0 0 2-2v-14a1.89 1.89 0 0 0-2-2h-10a1.867 1.867 0 0 0-2.01 1.96v13.65A2.239 2.239 0 0 0 636 1889h1v11h-2v-9a4.426 4.426 0 0 1-3.007-4.39v-13.65A3.822 3.822 0 0 1 636 1869h10a3.849 3.849 0 0 1 4 4v14a3.914 3.914 0 0 1-3 4v9zm39.506-31.99a7.51 7.51 0 1 1 7.5-7.51 7.494 7.494 0 0 1-7.5 7.51zm0-13a5.5 5.5 0 1 0 5.5 5.49 5.52 5.52 0 0 0-5.5-5.49zM692 1900h-2v-11h1a1.891 1.891 0 0 0 2-2v-14a1.891 1.891 0 0 0-2-2h-10a1.867 1.867 0 0 0-2.01 1.96v13.65A2.239 2.239 0 0 0 681 1889h1v11h-2v-9a4.426 4.426 0 0 1-3.007-4.39v-13.65A3.822 3.822 0 0 1 681 1869h10a3.849 3.849 0 0 1 4 4v14a3.914 3.914 0 0 1-3 4v9z" transform="translate(-632 -1841)"/></svg>