<svg xmlns="http://www.w3.org/2000/svg" width="63" height="63"><defs><style>.cls-1{fill:#9fadb9;fill-rule:evenodd}</style></defs><path id="Kurser_3" class="cls-1" d="M1262.5 1841a31.5 31.5 0 1 0 31.5 31.5 31.535 31.535 0 0 0-31.5-31.5zm0 60.91a29.41 29.41 0 1 1 29.41-29.41 29.439 29.439 0 0 1-29.41 29.41zm1.5-22.91v-22a1.407 1.407 0 0 0-1.02-1.42 1.377 1.377 0 0 0-.98 1.42v22a1.377 1.377 0 0 0 .98 1.42 1.407 1.407 0 0 0 1.02-1.42zm-1.02 11.75a2.09 2.09 0 1 0-2.08-2.09 2.087 2.087 0 0 0 2.08 2.09z" transform="translate(-1231 -1841)"/></svg>