<svg xmlns="http://www.w3.org/2000/svg" width="72" height="63"><defs><style>.cls-1{fill:#9fadb9;fill-rule:evenodd}</style></defs><path id="Kurser_2" class="cls-1" d="M964 1884v-22a1.4 1.4 0 0 0-1.018-1.42A1.377 1.377 0 0 0 962 1862v22a1.377 1.377 0 0 0 .982 1.42A1.4 1.4 0 0 0 964 1884zm-1.018 11.75a2.09 2.09 0 1 0-2.082-2.09 2.089 2.089 0 0 0 2.082 2.09zm-35.332.97a4.854 4.854 0 0 0 3.977 7.29h62.7a4.854 4.854 0 0 0 3.989-7.29l-31.054-53.35a5.028 5.028 0 0 0-8.555.01zm32.865-52.25a2.916 2.916 0 0 1 4.932 0l30.989 53.21.351.35-.082.26a2.8 2.8 0 0 1-.206 2.21 2.323 2.323 0 0 1-2.168 1.39l.669.11h-64c-1.09.02-1.038-.66-1.537-1.5a2.81 2.81 0 0 1-.188-2.26l-.015-.07.187-.35z" transform="translate(-927 -1841)"/></svg>