<svg xmlns="http://www.w3.org/2000/svg" width="53" height="63"><defs><style>.cls-1{fill:#9fadb9;fill-rule:evenodd}</style></defs><path id="ovriga_tjanster_1" class="cls-1" d="M497.98 1885.49a7.59 7.59 0 1 0-7.624-7.59 7.629 7.629 0 0 0 7.624 7.59zm0-13.01a5.42 5.42 0 1 1-5.444 5.42 5.437 5.437 0 0 1 5.444-5.42zM535 1841h-25a4.987 4.987 0 0 0-5.016 5.04v15.85a5.1 5.1 0 0 0 5.111 5.08l10.9.04v7.01l.2-.28a4.2 4.2 0 0 0-3.315 3.41l-1.34 7.99a.906.906 0 0 1-.542.69l-9 3.19-13.3.3a6.429 6.429 0 0 0-4.557 1.88 6.341 6.341 0 0 0-1.889 4.29H487v7.54a1.246 1.246 0 0 0 1.344.97c.6 0 .656-.37.656-.97v-7a5.643 5.643 0 0 1 5-5.01h14a8.328 8.328 0 0 0 1 0l7.836-3.19a3.092 3.092 0 0 0 1.865-2.32l1.371-7.99a2.071 2.071 0 0 1 .906-1.32 2.117 2.117 0 0 1 1.556-.28 2.055 2.055 0 0 1 1.615 2.24l-1.149 9.86a6.242 6.242 0 0 1-2.167 3.19l-13.32 7.07a1.092 1.092 0 0 0-.578.96v3.66a1.09 1.09 0 1 0 2.18 0v-3.01l12.744-6.74a5.134 5.134 0 0 0 2.637-3.68l1.5-9.45c.319-1.93-.456-5.26-2.265-6.02l-.735.02v-7.01l11.889-.04a5.1 5.1 0 0 0 5.11-5.08v-15.85A4.973 4.973 0 0 0 535 1841zm3 21.01a3.058 3.058 0 0 1-3 3h-12v-5a1 1 0 0 0-2 0v5h-11c-1.616 0-3-2.39-3-4V1847c0-1.61 1.384-4 3-4h25a3.058 3.058 0 0 1 3 3v16.01zM514 1850h6c.6 0 1.525.14 1.525-.45A2.015 2.015 0 0 0 520 1848h-6a1.666 1.666 0 0 0-1.189 1.55c0 .59.589.45 1.189.45zm15.816 5.13H513.9a1.092 1.092 0 0 0-1.09 1.09c0 .59 1.588.79 2.189.79h14c.6 0 1.906-.2 1.906-.79a1.092 1.092 0 0 0-1.089-1.09z" transform="translate(-487 -1841)"/></svg>