<svg xmlns="http://www.w3.org/2000/svg" width="63" height="63"><defs><style>.cls-1{fill:#9fadb9;fill-rule:evenodd}</style></defs><path id="ovriga_tjanster_2" class="cls-1" d="M829.671 1872.07c.129.02.262.05.384.06l11.409 1.47a4.009 4.009 0 0 0 4.547-3.63 4.138 4.138 0 0 0-3.619-4.27l-8.917-1.15-2.426-5.91a8.787 8.787 0 0 0-.61-1.21L830 1856h1a7.486 7.486 0 0 0 7.324-7.79 7.716 7.716 0 0 0-15.408.86 7.979 7.979 0 0 0 .139 1.08l.168.83-.852.08a1.336 1.336 0 0 1-.76-.16 66.212 66.212 0 0 0-10.892-4.59l-.956-.3a3.963 3.963 0 0 0-4.025.95l-8.13 7.94a3.983 3.983 0 0 0 5.352 5.9 2.425 2.425 0 0 0 .186-.17l6.357-6.23 4.128 2.15-5.149 7.83a9.635 9.635 0 0 0-1.291 3.73l-.036.28-9.879 8.97-8.82-3.18c-2.3-.85-3.868.15-4.972 2.32a4.555 4.555 0 0 0-.1 3.75 4.655 4.655 0 0 0 2.736 2.6L796 1887a6.387 6.387 0 0 0 2 0 5.451 5.451 0 0 0 3.421-.79l10.394-7.56 5.278 6.66-5.531 11.94a4.653 4.653 0 0 0 3.14 6.64 2.7 2.7 0 0 0 .562.09 3.724 3.724 0 0 0 .473 0 4.707 4.707 0 0 0 4.3-2.71l6.758-14.66a4.619 4.619 0 0 0-.437-4.62l-4.977-9.29 3.752-6.5 1.671 3.39a4.029 4.029 0 0 0 2.867 2.48zm-29.421 12.81c-.508.46-1.55.12-2.25.12a6.676 6.676 0 0 1-1 0l-10.277-3.8a2.919 2.919 0 0 1-1.7-1.62 2.823 2.823 0 0 1 .075-2.36c.741-1.34 1.357-1.93 2.773-1.4l9.308 3.37a.9.9 0 0 0 .9-.18l9.065-8.2.342 1.18a9.589 9.589 0 0 0 1.731 3.35l1.507 1.94zm25.727-20.92a.9.9 0 0 0-.507-.45.883.883 0 0 0-.676.05.849.849 0 0 0-.381.35l-4.806 8.34a.852.852 0 0 0 .006.83l5.22 9.75a.837.837 0 0 0 .086.13 2.825 2.825 0 0 1 .288 2.91l-6.807 14.68a2.976 2.976 0 0 1-2.675 1.68 2.7 2.7 0 0 1-.284-.01l-.294-.05a3.027 3.027 0 0 1-1.31-.64 2.979 2.979 0 0 1-.659-3.54l5.748-12.45a.871.871 0 0 0-.109-.91l-8.216-10.36a7.8 7.8 0 0 1-.635-8.9l5.693-8.65a.874.874 0 0 0-.239-1.22l-.09-.05-5.56-2.89a.887.887 0 0 0-1.034.16l-6.832 6.68a2.252 2.252 0 0 1-2.082.59 2.182 2.182 0 0 1-1.194-.71 2.3 2.3 0 0 1 .246-3.15l8.1-7.93a2.219 2.219 0 0 1 2.248-.53l.955.31a64.667 64.667 0 0 1 10.6 4.47 3.059 3.059 0 0 0 3.7-.6 1.763 1.763 0 0 0 .408-1.68 5.781 5.781 0 0 1 .105-3.43 5.99 5.99 0 0 1 6.258-3.95 5.881 5.881 0 0 1 3.987 2.17 5.8 5.8 0 0 1 1.262 4.32 5.534 5.534 0 0 1-.112.66c-.668 2.86-3.462 4.33-6.4 4.06a3.8 3.8 0 0 0-1.815.58c-.357.23-.1 1-.185 1.42a3.762 3.762 0 0 0 0 1c-.022.92 1.052 1.43 1.4 2.28l2.645 6.39a.874.874 0 0 0 .708.54l9.435 1.22a2.334 2.334 0 0 1 2.1 2.33 2.212 2.212 0 0 1-.887 1.65l-.379.28-.049-.03a2.15 2.15 0 0 1-1.276.2l-11.437-1.48-.118.01-.084-.02a2.206 2.206 0 0 1-1.606-1.39zM784 1857c-.488 0-.97.03-.97.52s.482 1.48.97 1.48h5a1.874 1.874 0 0 0 1.174-1.48c0-.49-.686-.52-1.174-.52h-5zm4-10c-.488 0-.548.64-.548 1.12a.886.886 0 0 0 .884.88h6.375a.887.887 0 0 0 .885-.88c0-.48-.108-1.12-.6-1.12h-7zm0 19c-.488 0-.548.42-.548.91s.06 1.09.548 1.09h7c.488 0 .6-.61.6-1.09s-.108-.91-.6-.91h-7z" transform="translate(-783 -1841)"/></svg>