<svg xmlns="http://www.w3.org/2000/svg" width="48" height="35"><defs><style>.cls-1{fill:#fff;fill-rule:evenodd}</style></defs><path id="icon" class="cls-1" d="M374 342.062l-.353-.494c-.033-.045-3.272-4.387-8.535-3.4.483-2.754-1.807-6.566-3.112-8.172h2v-5h-1c-.163-.136-1.063-.961-3.872.059L358 321h-1v-2h-2v5h1v-2h1l.733 3.72A4.056 4.056 0 0 0 356 328c-.257 1.231.738 1.666 1 2 .338.825 3.424 9.037 1.043 12.574C357.284 343.7 355.832 344 354 344c-3.716 0-5.834-.584-6.314-2.1-.4-1.274.627-2.665 2.314-3.9l1-1c.94 0 1-.071 1-1s-.06-1-1-1h-8c-.94 0-1 .073-1 1 0 .068-.008-.066 0 0l-7.36.075-.241.045c-.074.027-8.4 2.088-8.4 11.88v2h5c.817 2.654 3.139 4 6 4s5.185-1.346 6-4h17c.805 2.619 4.085 4 7 4a7.461 7.461 0 0 0 7-7c0-1.291-1.274-1.871-1.946-2.876zM343 336h7c.108 0 0-.107 0 0s.108 0 0 0l-1 1h-6a3.058 3.058 0 0 1 0-1c0-.107-.109 0 0 0zm-6 16c-2.012 0-3.474-.7-4.23-2.533h2.742A1.7 1.7 0 0 0 337 350a3.457 3.457 0 0 0 2.209-.533h2.742C341.2 351.3 339.012 352 337 352zm3.417-4.019h-6.109L331 348c.812-3.046 3.686-7 8-7a3.744 3.744 0 0 1 2.59 1c1.46 1.555 1.417 4.632 1.41 6zM357 348h-12c.018-1.56-.152-5.03-2-7a6.525 6.525 0 0 0-4-2c-5.36 0-9.225 5.419-10 9h-1a10.6 10.6 0 0 1 7-10h12a3.858 3.858 0 0 0-.753 4.34c.492 1.551 2.076 3.66 7.753 3.66a10.343 10.343 0 0 0 4-1 12.335 12.335 0 0 0-1 3zm1-20a1.35 1.35 0 0 1 1-1c1.723-.817 2.492-1.16 3-1v3h-4a1.248 1.248 0 0 1 0-1zm1 3h1c1.725 1.965 4.671 5.754 3.311 7.694a10.109 10.109 0 0 0-3 1.865A21.725 21.725 0 0 0 359 331zm8 21c-2.734 0-5.307-1.681-5.307-4.378a4.907 4.907 0 0 1 4.236-4.819 8.211 8.211 0 0 1 .824-.062C369.44 342.8 372 344.338 372 347a5.059 5.059 0 0 1-5 5zm4.169-9.12a5.917 5.917 0 0 0-4.378-1.629c-.047 0-.092-.007-.139-.007a6.637 6.637 0 0 0-.723.042 6.107 6.107 0 0 0-4.187 1.894 7.384 7.384 0 0 0-1.694 4.8L359 348c.174-6.246 4.813-7.915 5.038-7.985a7.128 7.128 0 0 1 7.994 1.953zm-4.384 2.04a2.652 2.652 0 1 0 1.9 4.526 2.612 2.612 0 0 0 .789-1.873 2.674 2.674 0 0 0-2.689-2.653zm0 3.817a1.165 1.165 0 1 1 1.181-1.165 1.174 1.174 0 0 1-1.181 1.165z" transform="translate(-326 -319)"/></svg>