<svg xmlns="http://www.w3.org/2000/svg" width="69.031" height="22.969"><defs><style>.cls-1{fill:#fff;fill-rule:evenodd}</style></defs><path id="icon" class="cls-1" d="M340.3 211.852a1.219 1.219 0 1 0 1.24 1.219 1.231 1.231 0 0 0-1.24-1.219zm0-4.679a5.9 5.9 0 1 0 6 5.9 5.957 5.957 0 0 0-6-5.9zm4 5.9a4 4 0 0 1-8 0 3.921 3.921 0 0 1 4-3.927 3.968 3.968 0 0 1 4 3.925zM358 206v2h4v-2h-4zm-9-3c-.241-.022-1.672 0-2 0h-1c-5.131-.252-2.825-.872-3-1a63.496 63.496 0 0 0-2 0c-.27.006.046.133.046.389a.968.968 0 0 0 .3.692c.76.745 2.108 1.68 6.656 1.919.324 0 .752-.022 1 0 .189.016 1.865 0 2 0 1.841-.018 21 0 21 0v-2s-20.221.083-22 0c-.136 0-.825.015-1.002 0zm9-1a3.024 3.024 0 0 0 1 0c.248-.153.434.084.491-.163a.965.965 0 0 0-.15-.747l-1.48-2.311a1 1 0 1 0-1.695 1.051L358 202c.194.3-.327 0 0 0zm36.377 11.915c-.011-.034.635.114.623.085a3.171 3.171 0 0 1 0-1c0-1.194 0-5.857-1.669-6.975-.949-.622-3.836-2.513-16.226-3.37C366.648 197.2 364.988 195.971 362 196a96.63 96.63 0 0 0-12.278.571c-3.24.346-9 2.347-12.806 3.67l-.113.039c-.455.159-.876.305-1.253.434-.237.084-.467.169-.68.247a10.636 10.636 0 0 1-1.09.366l-.043.006c-.451.127-2.644.317-4.245.456l-.947.083a1.705 1.705 0 0 0-.991.356A4.14 4.14 0 0 0 326 205c.007 6.345.025 9.776 1.148 10.641.277.274.282.037 5.852.359a1.166 1.166 0 0 0 1-1 1.089 1.089 0 0 0-1-1c-3.338-.21-4.07.158-5 0-.011-.578-.035-3.355 0-9 0-.488.97-.831 1-1a6.017 6.017 0 0 1 .867-.251h.053a41.819 41.819 0 0 0 4.331-.457l.141-.045c.3-.092.848-.264 1.856-.661l.487-.171c3.484-1.224 9.967-3.5 13.272-3.871a59.561 59.561 0 0 1 11.621-.234c2.668.3 4.4.847 14.733 6.194a.639.639 0 0 0 .44.123c8.15.555 13.2 1.563 15.435 3.076.419.353.764 5.3.764 5.3a6.762 6.762 0 0 0 0 2c.786-.175-4 0-4 0a.961.961 0 0 0-1 1 1 1 0 0 0 1 1h3c.9 0 2.746-.832 3-2a1.118 1.118 0 0 0-.623-1.088zm-65.346-4.99a.9.9 0 0 0 .245.7.921.921 0 0 0 .8.389 1.335 1.335 0 0 0 .588-.189 10.694 10.694 0 0 1 2.118-1.389 1.662 1.662 0 0 0 1.154-1.669 1.492 1.492 0 0 0-.462-1.086 3.974 3.974 0 0 0-2.6-.679.986.986 0 1 0 0 1.971h.384a15.381 15.381 0 0 0-1.861 1.267.933.933 0 0 0-.366.685zM390 208c-.163-.267-.721.053-1 0-.231-.047.162-.121 0 0-.953.466-1.628.4-1.507 1.111 0 .393.319.637 3.507.889h1s-.16-1.16-.693-1.264l-.073-.011c-.389-.054-.783-.11-1.145-.165.156-.272.057-.273-.089-.56zm-8.43-.827a5.9 5.9 0 1 0 6 5.9 5.957 5.957 0 0 0-6-5.9zm4 5.9a4 4 0 0 1-8 0 3.921 3.921 0 0 1 4-3.927 3.967 3.967 0 0 1 3.998 3.925zm-3.874-1.236a1.257 1.257 0 0 0-1.281 1.26 1.282 1.282 0 1 0 1.279-1.262zM374 215h-27c-.59 0-.717.22-.717.8A1.054 1.054 0 0 0 347 217h27a1.563 1.563 0 0 0 1.429-1.2c0-.58-.839-.8-1.429-.8z" transform="translate(-326 -196)"/></svg>