<svg xmlns="http://www.w3.org/2000/svg" width="18" height="14"><defs><style>.cls-1{fill:#028fcc;fill-rule:evenodd}</style></defs><path id="icon" class="cls-1" d="M536.7 135.581l7 5.816.022.022a.4.4 0 0 0 .56 0l.022-.022 7-5.816c.022-.022.042-.022.064-.042a3.557 3.557 0 0 0-1.83-.539h-11.097a3.368 3.368 0 0 0-1.83.539.162.162 0 0 1 .089.042zm15.846 1.163a.494.494 0 0 1-.151.151l-6.975 5.816a2.2 2.2 0 0 1-1.424.534 2.1 2.1 0 0 1-1.421-.538L535.6 136.9a.938.938 0 0 1-.151-.151 3.462 3.462 0 0 0-.449 1.7v7.108a3.454 3.454 0 0 0 3.441 3.443h11.11a3.455 3.455 0 0 0 3.449-3.447v-7.108a3.462 3.462 0 0 0-.457-1.701z" transform="translate(-535 -135)"/></svg>