<svg xmlns="http://www.w3.org/2000/svg" width="177.281" height="46"><defs><style>.cls-1{fill:#fff;fill-rule:evenodd}</style></defs><path id="LOGO" class="cls-1" d="M339 81h-4v3h-4v-3h-4V49h12v32zm-1.714-6.535A4.369 4.369 0 0 0 333 70a4.485 4.485 0 1 0 4.286 4.465zm0-18.581a4.438 4.438 0 1 0-8.876 0c0 2.474 2.161 4.112 4.59 4.113a3.994 3.994 0 0 0 4.286-4.114zM333 61a4.345 4.345 0 0 0-4.59 4.2c-.007 2.465 2.176 3.794 4.59 3.8 2.518.007 4.235-1.331 4.29-3.688A4.107 4.107 0 0 0 333 61zm-1 24h2s.007 4.022 0 6v1h-2v-7zm1-31c1.48-.017 2.024.455 2 2-.022 1.458-.534 2.009-2 2-1.566-.01-2.02-.528-2-2s.53-2 2-2zm0 13c-1.519 0-2.019-.492-2-2 .018-1.479.5-2.009 2-2 1.536.01 2.04.507 2 2-.039 1.438-.512 2-2 2zm63.449 14.638a2.471 2.471 0 0 0-.738-.886 7.23 7.23 0 0 0-1.582-.846 8.837 8.837 0 0 1-1.328-.643 1.646 1.646 0 0 1-.53-.518 1.283 1.283 0 0 1-.161-.66 1.127 1.127 0 0 1 .4-.9 1.781 1.781 0 0 1 1.181-.342 6.079 6.079 0 0 1 2.334.555l.51-1.319a6.834 6.834 0 0 0-2.8-.623 3.6 3.6 0 0 0-2.341.711 2.377 2.377 0 0 0-.872 1.948 2.668 2.668 0 0 0 .55 1.692 4.542 4.542 0 0 0 1.892 1.251 6.265 6.265 0 0 1 1.717.913 1.235 1.235 0 0 1 .416.94 1.2 1.2 0 0 1-.453.981 2.22 2.22 0 0 1-1.4.365 5.979 5.979 0 0 1-1.405-.183 7.367 7.367 0 0 1-1.426-.5V85.1a6.184 6.184 0 0 0 2.723.521 4.089 4.089 0 0 0 2.609-.751 2.5 2.5 0 0 0 .946-2.07 2.678 2.678 0 0 0-.242-1.162zm5.661-4.654h2.884V75.6h-7.371v1.387h2.884v8.5h1.6v-8.5zm11.818-.21a4.3 4.3 0 0 0-3.38-1.333 4.394 4.394 0 0 0-3.418 1.313 5.391 5.391 0 0 0-1.2 3.761 5.473 5.473 0 0 0 1.191 3.779 5 5 0 0 0 6.8-.01 6.494 6.494 0 0 0 .007-7.51zm-5.557.995a2.594 2.594 0 0 1 2.177-.94 2.542 2.542 0 0 1 2.15.94 5.659 5.659 0 0 1-.007 5.541 2.958 2.958 0 0 1-4.323-.01 5.586 5.586 0 0 1 .003-5.532zm14.367-.747a8.531 8.531 0 0 1 1.05.416l.576-1.346a6.129 6.129 0 0 0-2.776-.636 4.868 4.868 0 0 0-2.489.616 4.019 4.019 0 0 0-1.619 1.772 6.12 6.12 0 0 0-.56 2.7 5.538 5.538 0 0 0 1.153 3.765 4.164 4.164 0 0 0 3.307 1.316 7.307 7.307 0 0 0 2.616-.44V83.8q-.631.2-1.214.321a5.757 5.757 0 0 1-1.208.125 2.679 2.679 0 0 1-2.2-.933 5.225 5.225 0 0 1 .03-5.48 2.633 2.633 0 0 1 2.173-.988 3.749 3.749 0 0 1 1.161.176zm7.16 2.912q1.113-1.292 3.682-4.336h-1.824l-2.649 3.159q-.651.751-1.308 1.563V75.6h-1.6v9.891h1.6v-3.7l.945-.778 3.079 4.479h1.858zm12.824-4.334h-1.61v4.046h-4.52V75.6h-1.6v9.891h1.6v-4.462h4.52v4.458h1.61V75.6zm10.215 1.177a4.3 4.3 0 0 0-3.38-1.333 4.392 4.392 0 0 0-3.418 1.313 5.391 5.391 0 0 0-1.2 3.761 5.478 5.478 0 0 0 1.19 3.779 5 5 0 0 0 6.8-.01 6.492 6.492 0 0 0 .008-7.513zm-5.557.995a2.594 2.594 0 0 1 2.177-.94 2.54 2.54 0 0 1 2.149.94 5.659 5.659 0 0 1-.007 5.541 2.957 2.957 0 0 1-4.322-.01 5.586 5.586 0 0 1 .003-5.535zm14.786 7.719V84.1h-4.151v-8.5h-1.6v9.891h5.755zm7.592 0l2.945-8.247h.053c-.017.167-.039.645-.063 1.434s-.037 1.43-.037 1.921v4.891h1.544V75.6h-2.268l-2.8 7.868h-.04l-2.727-7.868H464.1v9.891h1.456v-4.81q0-1.61-.114-3.45h.058l2.844 8.26h1.415zM363.1 68V53.009h-2.451V68h2.451zm16.037-14.991h-2.245v7.854q0 .831.061 2.313t.082 1.718h-.065l-7.352-11.884h-2.974V68h2.225v-7.793q0-1.579-.144-3.486l-.051-.666h.082L376.129 68h3V53.009zm8.685 2.1h4.409v-2.1h-11.273v2.1h4.41V68h2.45V55.111zm15.3 10.808h-6.029v-4.705h5.65v-2.051h-5.65V55.08h6.029v-2.071h-8.48V68h8.48v-2.082zm16.006-12.91h-2.245v7.854q0 .831.061 2.313t.082 1.718h-.066l-7.352-11.884h-2.974V68h2.225v-7.793q0-1.579-.143-3.486l-.052-.666h.082L416.119 68h3V53.009zm11.792 9.157a3.765 3.765 0 0 0-1.128-1.343 11.073 11.073 0 0 0-2.42-1.282 13.718 13.718 0 0 1-2.03-.974 2.515 2.515 0 0 1-.81-.784 1.928 1.928 0 0 1-.246-1 1.7 1.7 0 0 1 .615-1.369 2.739 2.739 0 0 1 1.799-.512 9.367 9.367 0 0 1 3.568.841l.78-2A9.2 9.2 0 0 0 427 53a6.231 6.231 0 0 0-3.816.87 3.589 3.589 0 0 0-1.333 2.953 4.011 4.011 0 0 0 .841 2.563 6.936 6.936 0 0 0 2.891 1.9 9.566 9.566 0 0 1 2.625 1.385 1.863 1.863 0 0 1 .636 1.425 1.807 1.807 0 0 1-.692 1.487 3.417 3.417 0 0 1-2.148.554 9.242 9.242 0 0 1-2.148-.277 11.3 11.3 0 0 1-2.179-.759v2.317A10.518 10.518 0 0 0 426 68a5.8 5.8 0 0 0 3.828-.933 3.773 3.773 0 0 0 1.446-3.138 4.032 4.032 0 0 0-.359-1.764zM437.078 68V53.009h-2.451V68h2.451zm8.962-5.711q-.174.492-.451 1.518t-.41 1.8q-.082-.513-.359-1.564t-.52-1.713l-3.128-9.321h-2.522L443.876 68h2.584l5.25-14.991h-2.543zm13.248-2.707q1.7-1.958 5.629-6.573h-2.789l-4.05 4.789q-.994 1.138-2 2.369v-7.158L454 53v15h2.078v-5.609l1.446-1.179L462.231 68h2.84zm16.642-6.573v9.464c0 2.427-.62 3.527-2.93 3.527-1.189 0-2.607-.181-3.181-.769a3.786 3.786 0 0 1-.862-2.738v-9.484H466.5v9.659a5.341 5.341 0 0 0 1.549 4.061C469.077 67.713 470.141 68 472 68a9.068 9.068 0 0 0 3.607-.467 4.743 4.743 0 0 0 2.061-1.917 5.753 5.753 0 0 0 .713-2.907v-9.7h-2.451zm9.147 2.071h1.62a4.554 4.554 0 0 1 2.5.554 2.032 2.032 0 0 1 .83 1.825 2.305 2.305 0 0 1-.769 1.887 3.886 3.886 0 0 1-2.481.636h-1.7v-4.9zm2.419 6.932L491.085 68h2.789l-4.235-6.634a4.1 4.1 0 0 0 2.913-3.989 3.9 3.9 0 0 0-1.4-3.281 6.957 6.957 0 0 0-4.3-1.087h-4.235V68h2.451v-5.988h2.432zm16.417.154a3.765 3.765 0 0 0-1.128-1.343 11.122 11.122 0 0 0-2.42-1.282 13.666 13.666 0 0 1-2.03-.974 2.515 2.515 0 0 1-.81-.784 1.928 1.928 0 0 1-.246-1 1.7 1.7 0 0 1 .615-1.369 2.739 2.739 0 0 1 1.806-.514 9.371 9.371 0 0 1 3.568.841l.779-2A9.191 9.191 0 0 0 500 53a6.241 6.241 0 0 0-3.819.87 3.592 3.592 0 0 0-1.333 2.953 4.016 4.016 0 0 0 .841 2.563 6.947 6.947 0 0 0 2.892 1.9 9.582 9.582 0 0 1 2.625 1.385 1.863 1.863 0 0 1 .636 1.425 1.807 1.807 0 0 1-.692 1.487 3.421 3.421 0 0 1-2.149.554 9.242 9.242 0 0 1-2.148-.277 11.321 11.321 0 0 1-2.179-.759v2.317A10.536 10.536 0 0 0 499 68a5.8 5.8 0 0 0 3.826-.933 3.773 3.773 0 0 0 1.446-3.138 4.046 4.046 0 0 0-.359-1.764zM327 46h12v2h-12v-2z" transform="translate(-327 -46)"/></svg>